/* XPM */
static char *coins1646225531[] = {
/* columns rows colors chars-per-pixel */
"30 30 105 2 ",
"   c #010000",
".  c #0C0203",
"X  c #0C0C0C",
"o  c #181214",
"O  c #1D1618",
"+  c #241D1E",
"@  c #25211E",
"#  c #23311E",
"$  c #231E23",
"%  c #262122",
"&  c #2B2324",
"*  c #2A2A26",
"=  c #27252A",
"-  c #2C2629",
";  c #2F292A",
":  c #332C2D",
">  c #322D32",
",  c #3A2F30",
"<  c #363132",
"1  c #3B3333",
"2  c #3B353A",
"3  c #3E3A3C",
"4  c #413536",
"5  c #413738",
"6  c #443B3C",
"7  c #493E3E",
"8  c #0D4F0C",
"9  c #005B00",
"0  c #24501F",
"q  c #1C6918",
"w  c #1A7417",
"e  c #49403F",
"r  c #423F40",
"t  c #4A3F40",
"y  c #464343",
"u  c #4B4243",
"i  c #4B464A",
"p  c #4D4A4B",
"a  c #514546",
"s  c #514748",
"d  c #544A4C",
"f  c #594D4E",
"g  c #534A50",
"h  c #5A4F50",
"j  c #545252",
"k  c #5D5254",
"l  c #575857",
"z  c #5C595A",
"x  c #625556",
"c  c #635758",
"v  c #655A5B",
"b  c #695C5D",
"n  c #6A605E",
"m  c #6B5F61",
"M  c #646262",
"N  c #6D6364",
"B  c #6E6C6C",
"V  c #716465",
"C  c #736866",
"Z  c #776A6B",
"A  c #7B6D6E",
"S  c #7C716F",
"D  c #716F70",
"F  c #757474",
"G  c #7E7171",
"H  c #787778",
"J  c #7A7979",
"K  c #827475",
"L  c #857679",
"P  c #877A78",
"I  c #88787B",
"U  c #0E8E0B",
"Y  c #049F04",
"T  c #158C11",
"R  c #1E841A",
"E  c #1E881A",
"W  c #1C9918",
"Q  c #00A300",
"!  c #18A313",
"~  c #17AE13",
"^  c #14BD10",
"/  c #08DC03",
"(  c #13D911",
")  c #00E500",
"_  c #08EE04",
"`  c #01F501",
"'  c #00FF00",
"]  c #4CCB4C",
"[  c #5CFF5C",
"{  c #898787",
"}  c #8C8B8B",
"|  c #908F8F",
" . c #9E9E9E",
".. c #A6A6A6",
"X. c #AEAEAE",
"o. c #B6B6B6",
"O. c #B9B7B7",
"+. c gray",
"@. c #A3FFA3",
"#. c gray80",
"$. c #D3D3D3",
"%. c gray85",
"&. c #E6E6E6",
"*. c #EFEFEF",
"=. c #FEFEFE",
/* pixels */
"2 C K v k ; l M j B F j & $ . . p 6 p 3 3 M B % k j % < x p ",
"4 N S c x : B < p r 6 & $ < j w + - M : ; > u % c k : 2 h d ",
"v 1 % 7 u k { ; B F < $ % $.@.( % - j y z D l 1 7 d L Z $ $ ",
"h 1 & t d b M < j i % & { =.@.' ! * % & 2 r z 6 f k Z n - = ",
", 1 , k x K H z n z $ ..=.=.@.' ` W + $ - ; y x L G 1 2 e 3 ",
"7 s d d d C d p O % i *.=.=.@.' ' ` ` ^ o X.y f Z V g s 6 2 ",
"x S P 1 + , % % - X.%.=.=.&.@.) ' ' ) Q Q #.o.1 t d L Z , > ",
"d x b 7 7 , + i %.@.' *.&.' Q   ) )   Q ' 9   4 1 r Z N 4 , ",
", & @ h x 1    .=.&.&.@.@.' ) ) Q Q ) ) ' 9   u + ; x k t 2 ",
"a x v s s s    .=.=.=.[ ' ' ' ' 9 9 ' ' ' 9   4 t a Z m g t ",
"x K L 7 1 x    .=.=.=.[ ' ' ' ' 9 9 ' ' ' 9   1 c b K K c d ",
"6 a x d s 6    .=.=.=.[ ' ' ' ' 9 9 ' ' ' 9   6 t a V b 6 2 ",
"@ , , f x &    .=.=.=.[ ' ' ' ' 9 9 ' ' ' 9   7 , 6 x f $ $ ",
"4 f f A K 4    .=.=.=.[ ' ' ' ' 9 9 ' ' ' 9   4 Z V 5 6 5 2 ",
"e x x K K 5    .=.=.=.[ ' ' ' ' 9 9 ' ' ' 9   4 K K , 4 t 5 ",
"x 5 : a d k    .=.=.=.[ ' ' ' ' 9 9 ' ' ' 9   K b c $ & 4 > ",
"x 1 @ 6 7 x    .=.=.=.[ ' ' ' ' 9 9 ' ' ' 9   K c k % & , > ",
"@ V K 7 1 &    .=.=.=.[ ' ' ' ' 9 9 ' ' ' 9   * t s K A t 2 ",
"; C K e 4 &    .=.=.=.[ ' ' ' ' 9 9 ' ' ' 9   % u d K Z t r ",
"x a 7 K L s    .=.=.=.[ ' ' ' ' 9 9 ' ' ' 9   , x x u s c g ",
"f f d Z K e    .=.@.' =.&.' ' ' 9 9 ' ' ' 9   u f f a s k i ",
"+ C P b k &   l &.@.' @.@.@.[ )  . .) ) ' 9   L & - x h $ $ ",
"1 b Z z f 2 . U ` ' ' ' [ =. .  &.&.  Q ' 8 X A i i h d - $ ",
"x d e 1 , k J % q / ' ' [ @.[ ) @.@.) Y T & - x L G t 7 1 > ",
"x e 2 e u V 6 % % E ` ' ' ' ' ' ' ' ` R O < e d N N d a 5 > ",
"x 4 @ k c L z - M % O _ ' ' ' ' ' ) + & < H < < u u c k t 2 ",
"s k x f f N | 3 p z - 0 ~ ' ' ' ) ] & 2 1 j 3 : d k V n 1 < ",
", Z I d u k H < j j i ; # ` ' ' 9 y d l ; ; 3 % k b K A % $ ",
"d f f f h 6 Z - J i - n B Y Q Q  .- : y & p B b 6 6 b k ; = ",
"x 1 @ k x - $.i p p p j J       ..J } O. .X.+.L * - u 6 < > "
};
