/* XPM */
static char *door_open1646225617[] = {
/* columns rows colors chars-per-pixel */
"30 30 113 2 ",
"   c #020102",
".  c #0A0602",
"X  c #0B0805",
"o  c #060608",
"O  c #070809",
"+  c #0D0C0C",
"@  c #130B04",
"#  c #180F07",
"$  c #120D0A",
"%  c #171006",
"&  c #1D1306",
"*  c #14110E",
"=  c #1C130B",
"-  c #0E0F11",
";  c #0E1112",
":  c #141414",
">  c #1B1613",
",  c #1C1915",
"<  c #181719",
"1  c #171818",
"2  c #1C1B1B",
"3  c #231407",
"4  c #22160C",
"5  c #25190C",
"6  c #2B1C0E",
"7  c #251A12",
"8  c #2A1E12",
"9  c #231E1C",
"0  c #301F12",
"q  c #2E2214",
"w  c #23211D",
"e  c #2C231B",
"r  c #332313",
"t  c #35291B",
"y  c #392C1A",
"u  c #241F21",
"i  c #252323",
"p  c #2A2625",
"a  c #272826",
"s  c #2B2826",
"d  c #272728",
"f  c #2B2728",
"g  c #2D2B2B",
"h  c #312E2E",
"j  c #34302C",
"k  c #3A322C",
"l  c #332F31",
"z  c #343333",
"x  c #393635",
"c  c #3B3936",
"v  c #3B3739",
"b  c #3C3A3A",
"n  c #422E1A",
"m  c #48341E",
"M  c #413E3D",
"N  c #42413E",
"B  c #3D3F40",
"V  c #433F40",
"C  c #444343",
"Z  c #484545",
"A  c #4B4947",
"S  c #474748",
"D  c #454849",
"F  c #4C4B4B",
"G  c #524C46",
"H  c #514E4E",
"J  c #4F504C",
"K  c #51504E",
"L  c #4C4E50",
"P  c #524F50",
"I  c #555454",
"U  c #585756",
"Y  c #595856",
"T  c #565758",
"R  c #59575B",
"E  c #5C5B5B",
"W  c #605D5C",
"Q  c #62615F",
"!  c #5F5E62",
"~  c #615F60",
"^  c #5F6061",
"/  c #646363",
"(  c #696766",
")  c #6A6967",
"_  c #6A6769",
"`  c #6C6A6A",
"'  c #706F6E",
"]  c #6E706D",
"[  c #71706E",
"{  c #716F70",
"}  c #747373",
"|  c #797777",
" . c #797876",
".. c #747679",
"X. c #7C7B7B",
"o. c #82817F",
"O. c #868584",
"+. c #898787",
"@. c #898887",
"#. c #8C8B8B",
"$. c #908F8F",
"%. c #949392",
"&. c #999897",
"*. c #9B9B9B",
"=. c #A09F9F",
"-. c #A3A2A2",
";. c #A9A8A7",
":. c #ACACAC",
">. c #B0AFAE",
",. c #B1B1B1",
"<. c #BBBAB9",
"1. c #C3C2C2",
"2. c #D9D8D8",
/* pixels */
"X.@.&.#.*.*.:.;.@.*.` U M M x N N k J Z C &.X.V M o._ ` I O.",
"@._ ` X.| o.+.-.P f p Z ' U ( %.%.o.I A g x ' $.l v V W _ 1.",
":.} b V / %./ z l H ` H Q G A X.X.( [ [ X.M s x { U M H P #.",
"=./ X.#.-.R p b b / / / ` Q N o.[ Q ] U / ( W b l { ` P _ | ",
"-.X.X.;.T f F _ c A W ) Q U j ) ` U ] J Y Q } ` x l ~ | U :.",
"$.{ >.o.h g V T I g M c 2 X X : 2 2 s c K ] ^ L l b x ( _ %.",
"( _ $.f l S T E F 2 * o               * c Y J z F } x z _ *.",
"_ +.b h C g L I 2 X                 X O $ w b c } | E f ~ ,.",
"&.%.B A ( Y b 2 o O o                 + & & & J ` R _ I / @.",
"1. .F Q X./ u X $ * X               . * = 6 , k X.X._ I A -.",
"2.c F I T b $ @ & 4 @                 @ & r q w W _ ( I i -.",
"<.w b F F h # 4 6 5 X                 @ & r y 8 p v z i i X.",
":.w a g i > > 6 0 4 X                 % & r n r # l R ! F ` ",
">.A / / S $ 7 0 r 4 X                 @ = r n n 4 C ..( J _ ",
"O.Z S T b $ 8 0 k k < o             + w p 8 n m = b I D z ( ",
"~ / ] ] Y - E | W x -                 : N I ) N > / ..` E C ",
"H F F / C : b N i a :                 < M a G ) x F I F C h ",
"b z B D 2 $ > % M a :                 i w c w k # x N S Z a ",
"T + : < * . > 7 9 j +                 + N G 5 % . < 2 u 2 R ",
"/ 2 h z 2 $ e 6 # @                   . % q t r $ i v V x / ",
"( g F E l X q 5 3 * .                 . X 8 r r # M _ ` Y / ",
"/ g S ! d @ 6 3 & # .                 X @ 5 r 6 @ x P V b / ",
"/ T E T 9 @ 7 4 # $ .             o   X @ 4 r q # L R I Y / ",
"^ w g p > . 7 & # @ X       o o o X o . @ & 6 8 $ b L F b / ",
"/ A / Q v X = = $ $     o X O O + ; +   . # 5 q + h z l w ^ ",
"/ b S F d X = = $ $ . X + ; : 1 < 2 : X o # 4 7 $ x ^ D B / ",
") Q _ } V   * $ * $ $ : < 2 u i d d g d , 7 > 7 + J X.` } ( ",
") K T I l . $ $ ; < 2 i p g l x v B B B M M c p * x E T F ( ",
"Y j x z u < 9 9 u i p f h l v M D D L L D C C V i a x h h / ",
";.F b b v b v x x b F F l z z v B z C ! D C P I I F S J ( :."
};
