/* XPM */
static char *_d665d9798e34251e1087ae4ed93154cGoSUWzQ7PUCpIua3[] = {
/* columns rows colors chars-per-pixel */
"30 30 166 2 ",
"   c #0F0904",
".  c #0E0C0C",
"X  c #100701",
"o  c #130B04",
"O  c #190F05",
"+  c #120D0A",
"@  c #180F08",
"#  c #1B1006",
"$  c #14120E",
"%  c #1C140B",
"&  c #1F190E",
"*  c #141314",
"=  c #1B1612",
"-  c #1C1A16",
";  c #1B1A1A",
":  c #231204",
">  c #291607",
",  c #23160B",
"<  c #24190E",
"1  c #2A1B0D",
"2  c #241711",
"3  c #231B12",
"4  c #2C1E12",
"5  c #231E1B",
"6  c #311F14",
"7  c #35210D",
"8  c #39250F",
"9  c #2E2113",
"0  c #23211F",
"q  c #2C231A",
"w  c #332314",
"e  c #3B2614",
"r  c #372814",
"t  c #3D2A15",
"y  c #342619",
"u  c #39271B",
"i  c #36291B",
"p  c #3B2B1B",
"a  c #3E301E",
"s  c #252423",
"d  c #2A2524",
"f  c #2A2827",
"g  c #272729",
"h  c #2C2728",
"j  c #2E2B2B",
"k  c #342723",
"l  c #3A2D20",
"z  c #312D2C",
"x  c #31302D",
"c  c #38332F",
"v  c #312F30",
"b  c #343233",
"n  c #393533",
"m  c #3B3937",
"M  c #363438",
"N  c #383739",
"B  c #3D3A3B",
"V  c #462D0E",
"C  c #422612",
"Z  c #442B15",
"A  c #4A2D13",
"S  c #432D1A",
"D  c #453112",
"F  c #4D3516",
"G  c #44311C",
"H  c #4B331C",
"J  c #4C391E",
"K  c #53361E",
"L  c #553A1E",
"P  c #4D3622",
"I  c #4D3A22",
"U  c #4E3B29",
"Y  c #513620",
"T  c #543B23",
"R  c #5C3C23",
"E  c #533D29",
"W  c #413D3C",
"Q  c #564227",
"!  c #5C4123",
"~  c #53432E",
"^  c #5D452A",
"/  c #5F482E",
"(  c #484137",
")  c #43423D",
"_  c #544331",
"`  c #5A4830",
"'  c #64422D",
"]  c #644A2E",
"[  c #644C32",
"{  c #6E4E33",
"}  c #6B5234",
"|  c #66503B",
" . c #6F543B",
".. c #715033",
"X. c #745639",
"o. c #3F3E41",
"O. c #423F42",
"+. c #444343",
"@. c #494645",
"#. c #4E4A47",
"$. c #4A4748",
"%. c #474B49",
"&. c #4C4A4A",
"*. c #524B46",
"=. c #514E4D",
"-. c #53504D",
";. c #4F4E54",
":. c #545252",
">. c #595656",
",. c #595857",
"<. c #575758",
"1. c #5C5B5B",
"2. c #625C57",
"3. c #635D5C",
"4. c #5B615F",
"5. c #62605E",
"6. c #5E5D61",
"7. c #5C6362",
"8. c #646464",
"9. c #696665",
"0. c #6B6965",
"q. c #666669",
"w. c #696768",
"e. c #666A6A",
"r. c #6B6B6B",
"t. c #726D65",
"y. c #706E6D",
"u. c #6F716F",
"i. c #74726E",
"p. c #7D746A",
"a. c #6D6C73",
"s. c #736C72",
"d. c #747372",
"f. c #767473",
"g. c #757374",
"h. c #767575",
"j. c #7B7672",
"k. c #787777",
"l. c #777A77",
"z. c #7C7975",
"x. c #76797B",
"c. c #7A797A",
"v. c #7C7B7B",
"b. c #7B7D7E",
"n. c #817970",
"m. c #827E7C",
"M. c #85837E",
"N. c #8B837D",
"B. c #828181",
"V. c #848283",
"C. c #858485",
"Z. c #868686",
"A. c #888787",
"S. c #898888",
"D. c #8C8B8B",
"F. c #8F8E8F",
"G. c #9A948C",
"H. c #919091",
"J. c #9A9999",
"K. c #A09991",
"L. c #A09D9B",
"P. c #A1A0A0",
"I. c #A4A4A4",
"U. c #A8A7A7",
"Y. c #B1B0AF",
"T. c gray72",
/* pixels */
"U.F.d.8.:.A.D.Y.6.W 8.W n W n $.:.) B @.>.C.c.A.s.v.y.B.y.I.",
"S.1.:.W $.r.k.z j v B N W n @.9.y.8.8.=.d z 3.C.r.q.>.$.<.s.",
"3.$.W q.L.$.h d +.=.w.1.8.$.1.m.j.3.j.<.m.W j b P.3.:.k.:.9.",
"w.$.1.F.B j b $.O.2.8.r.a.6.<.k.r.<.s.<.3.3.h.O.h B.h.+.=.8.",
"h.W 6.O.z b o.8.n @.5.,.+.b b %.<.+.<.;.;.a.r.<.d h C.J.6.h.",
"C.<.=.z b N :.<.$.s d 5 o X O % % ; 5 d <.a.<.%.N b z T.r.H.",
"h.w.b d v $.w.<.x *   0 9 w i T A I p , f *.@.b 1.k.b W B.v.",
"v.+.h >.-.b &.v .   : E S p p ! K ^ [ 8 1 % j +.x.a.>.d y.v.",
"8.x ,.0.r.:.s . o < 1 ] V p p R T R { F t , # -.e.8.p.W +.b.",
"f.N -.8.r.&.. # 3 i S { A S p Q J T ] F H w 9 x b.c.3.-.b g.",
"L.B -.<.:.0   9 r G G } A t p E H P ^ F L t _ 3 :.7.1.@.s C.",
"@.d N +.m = # p p G L ..A p r E G G Q F L Z | > - s s d b h.",
"c f B b 5 o < I K Z Y { A u p T A e I D F C  .7 $ ) u.9.-.r.",
") 1.e.0.j o 4 ^ T H Y { C u p T Z e P D D Z X.Z * %.u.7.%.e.",
"&.-.4.1.f O p ^ R A K ' Z u e R Z 7 G V F S } 8 < #.1.-.O.8.",
"1.1.e.9.z O l / F V K T S w p R A w H A K C } Z 1 3.s.e.-.m ",
"@.$.<.8.- # c ` D t D U a 9 p Y u 4 a t I p / p 2 $.:.$.+.x ",
"d b B j . j 0.G.K.K.G.N.t.@.( p.M.f.t.p.p.c.n.2.j M o.O.) j ",
"+ * ; ; . s ( -.5.4.*.M.0.-.*.t.l.4.W *.2.+.W 2.- ; * ; $ 5.",
"; f N b $ o & - & f ) 5.1.x = W r.7.n % q + o d . g %.-.) 8.",
"g N <.<.* o 9 p 1 % l.4.-.5.$ i.9.-.0.< 1 o 4 3 % ) w.e.:.8.",
"s b =.$.+ # l ~ t w q i.j.n 5 k u.z.( e t : l p & n +.B M 8.",
") 6.8.+.$ # a I e 4 , # % < < 9 o + i w e % G a & -.1.<.1.8.",
"* g x g   # i G 7 4 1 p q 9 , w & % p w w % p p 3 W $.@.N 8.",
"v <.q.<.; O 4 S 7 3 1 y y 3 % 9 & & r 9 u O e w 3 z N M s 7.",
"b +.;.@.* o < p 1 1 % 9 y 3 O 1 & % 1 1 6 O w 1 @ W q.&.&.8.",
"$.8.d.8.5   < r > = % 9 4 % O 1 & @ 1 > 6 = w > % ;.k.w.s.w.",
"W ,.:.-.* X % 4 , 3 # 9 w @ O 4 & + , : 4 , w 1 = B 6.:.&.q.",
"5 W m x + o % 4 # % $ y 1 # @ 3 % + 4 2 5 = w 4 2 v O.O.v q.",
"i.$.+.#.$.$.$.$.@.@.W j d h d d f 0 @.+.B W +.O.W B B o.=.w."
};
