/* XPM */
static char *_ed568ce87fd484f9cacdcdb431d971aNksvBK8X0ypIQ0as[] = {
/* columns rows colors chars-per-pixel */
"30 30 6 1 ",
"  c #0C7A07",
". c #0D7B08",
"X c #15AF0E",
"o c #16AF0E",
"O c #16B00F",
"+ c #22FA18",
/* pixels */
".OOOOOOOOOOOOOOOoOOOOOOOOOOOO ",
"O++++++++++++++++++++++++++++X",
"O++++++++++++++++++++++++++++X",
"O++++++++++++++++++++++++++++X",
"O++++++++++++++++++++++++++++X",
"O++++++++++++++++++++++++++++X",
"O++++++++++++++++++++++++++++X",
"O++++++++++++++++++++++++++++X",
"O++++++++++++++++++++++++++++X",
"O++++++++++++++++++++++++++++X",
"O++++++++++++++++++++++++++++X",
"O++++++++++++++++++++++++++++X",
"O++++++++++++++++++++++++++++X",
"O++++++++++++++++++++++++++++X",
"O++++++++++++++++++++++++++++X",
"O++++++++++++++++++++++++++++X",
"O++++++++++++++++++++++++++++X",
"O++++++++++++++++++++++++++++X",
"O++++++++++++++++++++++++++++X",
"O++++++++++++++++++++++++++++X",
"O++++++++++++++++++++++++++++X",
"O++++++++++++++++++++++++++++o",
"O++++++++++++++++++++++++++++X",
"O++++++++++++++++++++++++++++X",
"O++++++++++++++++++++++++++++o",
"O++++++++++++++++++++++++++++o",
"O++++++++++++++++++++++++++++o",
"O++++++++++++++++++++++++++++o",
"O++++++++++++++++++++++++++++o",
".oooooooooooooooooooooooooooo "
};
