/* XPM */
static char *_16429bb01bf463be17b14acd4015275WgOVvJaVicvQCd4Q[] = {
/* columns rows colors chars-per-pixel */
"30 30 91 1 ",
"  c #261F1F",
". c #27211F",
"X c #251F22",
"o c #262121",
"O c #2A2324",
"+ c #2B2629",
"@ c #2F292A",
"# c #332C2C",
"$ c #382E2F",
"% c #2F2C30",
"& c #352D32",
"* c #392F30",
"= c #373131",
"- c #3B3333",
"; c #3D3539",
": c #3F3A3C",
"> c #413637",
", c #413738",
"< c #443B3C",
"1 c #493E3F",
"2 c #463F42",
"3 c #493F40",
"4 c #4C4243",
"5 c #4E4549",
"6 c #514546",
"7 c #514748",
"8 c #544A4C",
"9 c #584D4E",
"0 c #5C504E",
"q c #5A4F51",
"w c #575051",
"e c #5D5253",
"r c #615556",
"t c #635957",
"y c #625658",
"u c #635658",
"i c #635759",
"p c #635859",
"a c #655B5B",
"s c #675D5B",
"d c #65595C",
"f c #645A5C",
"g c #675C5E",
"h c #6A5B5E",
"j c #6A5C5E",
"k c #6B5D5E",
"l c #6C5E5F",
"z c #6A605F",
"x c #6B5F61",
"c c #6C5E60",
"v c #6B6062",
"b c #6E6361",
"n c #6F6365",
"m c #716161",
"M c #706366",
"N c #716665",
"B c #726665",
"V c #746565",
"C c #756766",
"Z c #746967",
"A c #736668",
"S c #746568",
"D c #746769",
"F c #756769",
"G c #76686B",
"H c #77686B",
"J c #766A6A",
"K c #7A6A6A",
"L c #796A6D",
"P c #7B6D6D",
"I c #7B6D6E",
"U c #7B6E6E",
"Y c #7D6E6F",
"T c #7D6F71",
"R c #7E6F72",
"E c #7D7272",
"W c #7F7375",
"Q c #837272",
"! c #837373",
"~ c #817374",
"^ c #827376",
"/ c #837477",
"( c #847575",
") c #857576",
"_ c #887776",
"` c #897777",
"' c #847578",
"] c #867679",
"[ c #86797B",
"{ c #887879",
"} c #88787B",
/* pixels */
";C_la#O&---4u}x-7p:.<4@.rrO@rw",
"1aBee,---<3euFe250;.5e-Owe4485",
"a,o<3rr34rj]no2u5-O.B[5*15)E X",
"7-+68mm887qLf@,854;*eb54uaxf&&",
"*-$er!(aeo=p8=--7e84#.8r]~--4<",
"6rj64pa4<@,Fj,=@9Gw-<456cxfr,;",
"rP_,.==Oo=4[G4-.p(0.8t<-45~W&&",
"48966---<888894#5f852<,<#-Mx<;",
"$+ 9r>-34e0.;p7-<19r-O<4XOrr22",
"9hC6<8qGZ87wtPj<6e4-58,-89LF97",
"tP_6-ea)W46eb[B49r<.8t,-rf)Qrq",
"#,39q-#12+@:,4-O-,<<BQ74,1fu$+",
".$-9r#X-=XO---#.@-<3K_93--uqXX",
"10rQ_<$11*4)G1,#5r<O8u<*QP>>,2",
"69ePQ1><<-3)Z1<>6e<+8e<>QQ**32",
"u-O<1erO+36a8Ow[j-8f<-K)uuXO*&",
"91<<<89O#99q7*eTr#7e4,BPrq<,*&",
" C`4-OO-<]P*2uw4- >3er#o24)~32",
"-zK96$#69TF-<87,>-,<9w-o58LA62",
"r61P{84)Err41-@o4u4*<4-=eu45uq",
"5rsBK<,GZ98-3r4@7Me41<9r478852",
" B]gt@.te3<.7]n-d]Sr1-P)#OeeXX",
"1rx9544559qufLa<eFr4ehCCur87@+",
"r74--9t--uh(Tp848u<OF)ju)]42*&",
"r<$48FT<<47fe<404,47rf74aaq9<;",
"r>.eu(/43*-3;o<p4O7u54-=<4re2:",
"<gG97jvewO@-5Ag7784<8e=OqePG@%",
"-G}94eppeOO=q)n48r5-we=oep)Po+",
"e1,9r-#,,<,+<jw-=#>1<,BP-=88=@",
"t;Owr@o--4<o,a8-@o;4;-E[@O44=%"
};
