/* XPM */
static char *dcc10e91c6354c82e429383d670226a2fudMmnKv9ilzg0RF[] = {
/* columns rows colors chars-per-pixel */
"30 30 207 2 ",
"   c #232322",
".  c #2A2425",
"X  c #2A2928",
"o  c #3B2727",
"O  c #322D2E",
"+  c #242E3C",
"@  c #342F30",
"#  c #363132",
"$  c #393536",
"%  c #3B3738",
"&  c #3D3A3B",
"*  c #7D221E",
"=  c #442A25",
"-  c #452827",
";  c #4A2825",
":  c #592723",
">  c #4D302C",
",  c #5E3226",
"<  c #57342A",
"1  c #5F3328",
"2  c #413E3E",
"3  c #5A3A31",
"4  c #662A25",
"5  c #7D2521",
"6  c #7F2B24",
"7  c #673428",
"8  c #6C392A",
"9  c #733C2C",
"0  c #793B29",
"q  c #603834",
"w  c #5E4437",
"e  c #7F402D",
"r  c #6A4032",
"t  c #744836",
"y  c #21324D",
"u  c #3E3F40",
"i  c #4A3544",
"p  c #433F40",
"a  c #2D4054",
"s  c #394C5B",
"d  c #22446D",
"f  c #304167",
"g  c #33526E",
"h  c #244D78",
"j  c #394E7F",
"k  c #2E5272",
"l  c #444243",
"z  c #494646",
"x  c #4A4748",
"c  c #454A49",
"v  c #4D4B4B",
"b  c #504E4E",
"n  c #4F504F",
"m  c #54514F",
"M  c #555253",
"N  c #595657",
"B  c #5D5956",
"V  c #5B5758",
"C  c #5D5B5B",
"Z  c #7A4747",
"A  c #735F4A",
"S  c #615E5E",
"D  c #70675A",
"F  c #47516A",
"G  c #5E5561",
"H  c #615F60",
"J  c #655969",
"K  c #675271",
"L  c #745E7E",
"P  c #57616B",
"I  c #4F6477",
"U  c #646263",
"Y  c #696664",
"T  c #6E6A66",
"R  c #656668",
"E  c #6D6B6C",
"W  c #726F6E",
"Q  c #73726D",
"!  c #6B6D70",
"~  c #746A79",
"^  c #6C777B",
"/  c #757374",
"(  c #797674",
")  c #78737E",
"_  c #7C7B7B",
"`  c #9D1E19",
"'  c #8B211E",
"]  c #9E221D",
"[  c #A2221D",
"{  c #8C2622",
"}  c #852825",
"|  c #9B2825",
" . c #AE312F",
".. c #C8221E",
"X. c #854C37",
"o. c #81513B",
"O. c #80434D",
"+. c #865B44",
"@. c #8B5455",
"#. c #A95F5D",
"$. c #8B634A",
"%. c #91654C",
"&. c #886B56",
"*. c #936E52",
"=. c #947157",
"-. c #966E6E",
";. c #817F7F",
":. c #B7706D",
">. c #184E85",
",. c #1C528B",
"<. c #1B5793",
"1. c #1C5A98",
"2. c #26588A",
"3. c #39668B",
"4. c #25649C",
"5. c #396E9C",
"6. c #1A66AD",
"7. c #1E6FB8",
"8. c #3B78A7",
"9. c #3075AE",
"0. c #436A8A",
"q. c #547088",
"w. c #456597",
"e. c #45799D",
"r. c #7D6787",
"t. c #7D7F80",
"y. c #627D9A",
"u. c #4D7CAA",
"i. c #8A7A8B",
"p. c #887095",
"a. c #3780B8",
"s. c #78848A",
"d. c #6D8A9C",
"f. c #728898",
"g. c #4C87AD",
"h. c #6E8AA5",
"j. c #7294AB",
"k. c #638FB7",
"l. c #6A9CB5",
"z. c #7DA5B7",
"x. c #7CA9BF",
"c. c #3F8BC6",
"v. c #489ACF",
"b. c #5C9AC7",
"n. c #689EC0",
"m. c #759ACE",
"M. c #6BA2CC",
"N. c #65A9C8",
"B. c #74A6C9",
"V. c #6CAAD2",
"C. c #74AED6",
"Z. c #77B2D3",
"A. c #858484",
"S. c #888687",
"D. c #888788",
"F. c #868888",
"G. c #8C8B8B",
"H. c #90858D",
"J. c #908F8F",
"K. c #94928E",
"L. c #8D9394",
"P. c #949394",
"I. c #9C9A96",
"U. c #9A9498",
"Y. c #949C9A",
"T. c #9C9B9B",
"R. c #A58C8B",
"E. c #98A09E",
"W. c #A2A891",
"Q. c #A4A29F",
"!. c #9192A7",
"~. c #9BA5A4",
"^. c #8DA6B3",
"/. c #A5A4A4",
"(. c #AAA8A5",
"). c #A5A8A9",
"_. c #ACACAC",
"`. c #AFB2A3",
"'. c #B7B4AF",
"]. c #A9AEB8",
"[. c #B3B3B3",
"{. c #BAB7B4",
"}. c #B3B8BA",
"|. c #BBBBBB",
" X c #A9C0BD",
".X c #89AECC",
"XX c #9AACC6",
"oX c #89B4CA",
"OX c #95BBC8",
"+X c #8ABAD5",
"@X c #95C3D3",
"#X c #9EC4D3",
"$X c #B8C7C4",
"%X c #A6C9D1",
"&X c #AFD4DB",
"*X c #BEDDDC",
"=X c #ADD6E1",
"-X c #C2C2C2",
";X c #C8C7C4",
":X c #CBCBCA",
">X c #D2CDC7",
",X c #D0CFCF",
"<X c #D5D5D4",
"1X c #DDDDDD",
"2X c #E0DEDE",
"3X c #E8E8E8",
"4X c #F9F9F9",
/* pixels */
"_ C M G U M C _ A.G.D.D.S.S._ J.P.P.U./._.G.F._.[.U.:XP./ <X",
"Y V & l $ # 2 p x v b H S M V M E ;.K.l F.! A.[._.Y P.( P.2X",
"A.U U Y l O # $ z p # p v p O # $ U N . 2 x G.[.( _.}.M / 2X",
"U n C x _ l l v & # $ p Y _ _ _ _ M C . v S /._ Y _.P.2 M -X",
"C % % z Y & z x M V m E _ G.T.T.P.E v O l V P./ S :X(.z v [.",
"P.z b z C M l v N H p M u & & b _ _ _.W ~./ {.S Y -X_.U E D.",
"T.v 2 & C z C N C i.E |.|.-X-X[.U.A.A./._.G.|.U D _./.b _ N ",
"_ z M @ M C b N Q ).|.[.-X[.[.-X,X,X[.|.[._.4XT T /.F.N _ _ ",
"M v M V G.& G ) 3X$X].1X1X^.].3X).E.-X4X3X{.4X/ T <XD.C C _.",
"V & x U _.M U -X}.<X+X^.k.C.M.j.B.#X X1X3X:X}.v T h._ _ E U.",
"C # N E }._  .R.%XoXw.N.+X*X%XZ.8.u.#XY.#.-.d.c V 5.! A.M /.",
"F.& v / :X;X .:.z.e.D f..XC.C.^.G S k.) :.4 oX. D 4.k P.M _ ",
"/.l % E 4Xt.| ..| o 8.^.'.m.XXW.n.d : 6 r = 2.X x >.2.-XM / ",
"E E & /.^..Xw.} } V 0.M..X&X#XB.u.P o , t f <.y v 0.q. XC D.",
"Y V Y L.=X=Xv.i 8 o A.T.g.N.l.h.K./ ; : j 7.4.s b 0.( >XY ) ",
"V M D.0.+XV.9.q X.1 ( Z O.0.I ' E S 8 3 <.n.oXF m h -X,XN ( ",
"S C R l.V.<.F X.&.t ~.@.{ X = ] F.( +.w 2.l.B.0.m ~ 2X>XJ H.",
"S N R a.9.6.; , =.$.= P.B y & A.T 7 =.w 7 2.p.~ ;.K !.[.S.Q.",
"v Y U 3.a.2.~ | 8 8 [ / K.;X{._ Z ' 0 } ' H.i.~ '.L U.S.S.K.",
"U ).C 8.Z.^ OX> ' [ ' / `.2X>XG.: ` * *   I.J i.'.p.;.I.Q.G.",
"S ;.s.j.y.4.d 1   4 ; V A.|.Y./ = : = = ; J._.S r.P././ _.P.",
"Y B _ g e.1.X 9 e 7 %.A I.B K.Q &.t 4 0 ;   -X_.(.1XU.U D.[.",
"J.x ( / )./ X   7 +.< = +.*.=.7 . , o.=   . [.U./._.z ;.U [.",
"s.w z ( E._ / _ ^ 3.a.+ 7 %.t o h c.X E /.. ;.:XU.b % / M {.",
"^ % $ E C _ ;X!.^.Z.@X4.X , = y b.@XOXB.[.P._ [.J.n U / _ -X",
"/.z l E N B ).s. Xf.d.2.,.<.1.d 5.~.^ P._ L.B _ v M A.S A.T.",
"Q.z C _ H S _.C `.K.E.          l $XR Q U.[.|.( l S E n A.T.",
"/.v A.A.& n -XT.{. X% X           _ <X1X-XY M O z M E F._.[.",
"P.V G H l x l G.I.).I.V v n b v F.|./.H l w v z U _ A._ A._.",
"T.P.P./ P.:XQ.[.).G.(.E.P.P.T.).A.H C D.P G C c B _ _ U / <X"
};
