/* XPM */
static char *_a8b71aae5d643a296e4e69314e3dbdfH11gyZLvcNkBkn8R[] = {
/* columns rows colors chars-per-pixel */
"30 30 153 2 ",
"   c #010100",
".  c #0B0908",
"X  c #110E0E",
"o  c #011B03",
"O  c #1B1717",
"+  c #210D07",
"@  c #3D1E0F",
"#  c #261F1E",
"$  c #042F06",
"%  c #092E0A",
"&  c #27221F",
"*  c #1C1C21",
"=  c #241F23",
"-  c #262121",
";  c #2A2424",
":  c #2A262A",
">  c #2E292A",
",  c #332C2D",
"<  c #31382A",
"1  c #2F2C30",
"2  c #342D32",
"3  c #3B2F31",
"4  c #363232",
"5  c #3B3334",
"6  c #3D3539",
"7  c #3D3B3B",
"8  c #6A371A",
"9  c #503221",
"0  c #413637",
"q  c #423739",
"w  c #433B3C",
"e  c #493E3E",
"r  c #0A420C",
"t  c #19441A",
"y  c #075613",
"u  c #1B5F15",
"i  c #1E5618",
"p  c #204B1B",
"a  c #086C1F",
"s  c #29681F",
"d  c #185920",
"f  c #36422F",
"g  c #0E7A29",
"h  c #2C7522",
"j  c #316D38",
"k  c #575719",
"l  c #744A24",
"z  c #754D30",
"x  c #453F42",
"c  c #4A3F41",
"v  c #454343",
"b  c #4C4243",
"n  c #4D4349",
"m  c #4B4A4A",
"M  c #514545",
"N  c #514648",
"B  c #544A4B",
"V  c #594D4E",
"C  c #5C504E",
"Z  c #5A4E51",
"A  c #565354",
"S  c #5D5253",
"D  c #5C5B5B",
"F  c #7F5B42",
"G  c #625556",
"H  c #625658",
"J  c #645A5C",
"K  c #6A5D5E",
"L  c #69605C",
"P  c #6A5E60",
"I  c #636363",
"U  c #6A6465",
"Y  c #696867",
"T  c #6D6C6D",
"R  c #726566",
"E  c #736867",
"W  c #736669",
"Q  c #766B6A",
"!  c #7B6D6D",
"~  c #7D6F71",
"^  c #747373",
"/  c #7B7475",
"(  c #7B7A7A",
")  c #80411D",
"_  c #8B5826",
"`  c #905B26",
"'  c #806132",
"]  c #9E6F3D",
"[  c #8C6548",
"{  c #85785E",
"}  c #9C7956",
"|  c #A0795B",
" . c #837475",
".. c #867678",
"X. c #86797A",
"o. c #887879",
"O. c #2B811E",
"+. c #0E852B",
"@. c #2E8322",
"#. c #319423",
"$. c #2FA52B",
"%. c #6EBB1B",
"&. c #579928",
"*. c #41A528",
"=. c #45B02B",
"-. c #378642",
";. c #61AB72",
":. c #ACA80D",
">. c #CAAF26",
",. c #9DD416",
"<. c #D8C814",
"1. c #E8D90F",
"2. c #E1F006",
"3. c #FEFE02",
"4. c #F3D234",
"5. c #FDED22",
"6. c #AF8142",
"7. c #BB8F43",
"8. c #84A442",
"9. c #99906D",
"0. c #B78E64",
"q. c #C29445",
"w. c #C59551",
"e. c #DAA559",
"r. c #F1BA59",
"t. c #C2A37F",
"y. c #FEF472",
"u. c #597BA6",
"i. c #078AC1",
"p. c #6EA4CF",
"a. c #848384",
"s. c #888787",
"d. c #8C8B8B",
"f. c #929292",
"g. c #9C9998",
"h. c #A09C9B",
"j. c #A4A4A4",
"k. c #ACACAC",
"l. c #A0B1A7",
"z. c #B4B3B4",
"x. c #BBBABB",
"c. c #DCB78D",
"v. c #CAB7A2",
"b. c #D2BEA8",
"n. c #EDC99F",
"m. c #FBDBAD",
"M. c #BFBFC0",
"N. c #CBCBCC",
"B. c #D6D6D6",
"V. c #DBDADA",
"C. c #FFEEC3",
"Z. c #FFFDD9",
"A. c #EEEEEE",
/* pixels */
"6 E o.K J , - 5 5 5 0 c G X.U 5 n P 7 - w b > = G G - , H Z ",
"e J R G C 7 5 5 0 w c A G E H w n A 6 * N S 5 > Z A b b Z c ",
"J q # w c m m I m I D m ^ ^ / ( 9.^ ^ / v 6 v A T M  . .# = ",
"B 5 ; M N m 7 m D 9.F l s t p h h s j x.g.D m m Y H P J 2 1 ",
"3 5 3 C H m D / } w.5.2.%.O.O.*.*.*.#.-.;.9.u.^ P / 5 5 b w ",
"M G J M b 6 Y 7.3.7.] e.r.6.a O.=.*.*.*.a < R h.A P J G 6 6 ",
"G ! o.q & m } 1.q.q.] 4.q.8.O.O.*.*.*.+.g a j s.D b X. .3 2 ",
"b B V M N L _ 5.e.` c.5.q.>.,.O.y y u g g +.< d.D 5 U P w 6 ",
"5 ; & V D d.v.7.] 0.c.e.[ <.,.a y a a +.g g d D N ; G G c x ",
"V K R M w s.x.b.X c.n.c.>.<.:.-.a a g y a +.+.r J B ! Q V c ",
"G  .o.M 5 a.T x.  0.0.n.y.<.[ k y u y r o y g % P H  . .G Z ",
", 0 e V A v ^ T ' 0.c.n.r.q.] z 9.l.9.r   r y . T x K H , > ",
"& , 0 V G v X.m n.c.b.n.| q.>.| C.Z.n.m a.f y X ^ 5 G Z = = ",
"e V C  . .7 ^ I | 0.0.m.| :.:.u.V.c.z ^ N.m a O f.~ 0 0 c x ",
"M V C  . .v ^ B.I t.m.C.| :.:.i.p.) k { z.a.% x ^  .3 3 c x ",
"G 0 & q b 7 Y Y k.( | t.z :.:.  $ 9 7.{ M.k.T s.N.G = ; 3 2 ",
"V c w w e m m d.( B.f r o ` 7.r g $ f Y g.f.h.I ^ Z w q 5 2 ",
"# R o.b 3 7 w B.s.D u +.g r 9 @ r a : T d.T ( A j.b  . .c x ",
"5 K ! V B 4 4 j.; <.&.g r r -.r r a : ( g.d.D ( k.B Q W c c ",
"G N e ! X.5 4 I O &.k ) @ f.A.f.@ k i ^ s.f.D f.s.H b b H Z ",
"M S J E Q v > f.O #.&.&.r m u.v s $.p c ^ j.m D v n B B N x ",
"# R X.K S 5 > j.g.b *.$.r * m O i @.: a.( j.7 4 f.; G S = = ",
"b H L V N 7 : ^ k.N.f r o ^ B.] $ 7 d.X.z.> : T U G B N > : ",
"G B e 7 4 5 < A Y d.9 @ X A 9.f v ( ;.A v 7 ( m T ..c e 3 2 ",
"G w 3 b B m 5 A D v 8 l 9 +   L s.a.A D s.D 7 I 4 J V B x 5 ",
"G 5 & S H Y 5 7 D ^ 9 9 @ m A f.k.I T ( D v v v v b G G x w ",
"w P E Z M D v 7 m A c Y I s.k.d.D 7 5 m D 5 m ( v S ! E , > ",
"5 W o.V b G H H S - ; , Z X.R b B H b 5 Z H 4 - S H  ./ - = ",
"G e q Z G 5 , q q w q ; w K Z 5 4 , q b q q W ! 5 4 B B , , ",
"H 6 - Z H > = 5 5 b e # q J B 5 > - 5 b 5 5 / X., ; b v 4 2 "
};
