/* XPM */
static char *_78eeafc993e42aacd3aba3f21c756cdnKYSRWvxMmQRb8wp[] = {
/* columns rows colors chars-per-pixel */
"30 30 153 2 ",
"   c #010100",
".  c #210E08",
"X  c #22100C",
"o  c #3D1E0F",
"O  c #251F1F",
"+  c #103210",
"@  c #37221A",
"#  c #1C1C21",
"$  c #211E21",
"%  c #262121",
"&  c #2A2424",
"*  c #2A2727",
"=  c #2C292B",
"-  c #3E2B26",
";  c #332C2D",
":  c #2E3328",
">  c #312E31",
",  c #392F30",
"<  c #363232",
"1  c #3B3233",
"2  c #3B3738",
"3  c #3E393A",
"4  c #65351B",
"5  c #6A371A",
"6  c #503221",
"7  c #523629",
"8  c #413738",
"9  c #453A3B",
"0  c #433A3C",
"q  c #0A420C",
"w  c #114E17",
"e  c #075613",
"r  c #1B5F15",
"t  c #36422F",
"y  c #0E7A29",
"u  c #2B6428",
"i  c #306823",
"p  c #2D7622",
"a  c #575719",
"s  c #43483C",
"d  c #704A2F",
"f  c #754D30",
"g  c #4A3F41",
"h  c #1D4766",
"j  c #444141",
"k  c #4B4244",
"l  c #4F4648",
"z  c #4E494B",
"x  c #514547",
"c  c #514748",
"v  c #544B4C",
"b  c #594D4F",
"n  c #544E51",
"m  c #5A4E51",
"M  c #565253",
"N  c #5C5354",
"B  c #5B5758",
"V  c #5D5A5A",
"C  c #665F4B",
"Z  c #615656",
"A  c #635759",
"S  c #645A5C",
"D  c #6B5E5E",
"F  c #6C615F",
"G  c #685E60",
"H  c #666262",
"J  c #6C6363",
"K  c #6A6A67",
"L  c #6E6B6B",
"P  c #726565",
"I  c #736768",
"U  c #746B6C",
"Y  c #7A6A6D",
"T  c #6F706D",
"R  c #746F70",
"E  c #757273",
"W  c #7B7475",
"Q  c #797778",
"!  c #7D797A",
"~  c #80411D",
"^  c #886C1B",
"/  c #905B26",
"(  c #9E6F3D",
")  c #8C6548",
"_  c #91755F",
"`  c #A0795B",
"'  c #806E6E",
"]  c #857576",
"[  c #877777",
"{  c #887776",
"}  c #857678",
"|  c #837A7C",
" . c #8B7C7D",
".. c #2B811E",
"X. c #0E852B",
"o. c #19912D",
"O. c #319723",
"+. c #2FA52B",
"@. c #6EBB1B",
"#. c #579928",
"$. c #41A528",
"%. c #45B02B",
"&. c #76817A",
"*. c #61AB72",
"=. c #A98617",
"-. c #ACA80D",
";. c #CAAF26",
":. c #D8C814",
">. c #E8D90F",
",. c #E1F006",
"<. c #FEFE02",
"1. c #F3D234",
"2. c #FDED22",
"3. c #AF8142",
"4. c #A5805B",
"5. c #84A442",
"6. c #9F856A",
"7. c #99906D",
"8. c #A4896F",
"9. c #B68D63",
"0. c #C29445",
"q. c #DAA559",
"w. c #F1BA59",
"e. c #C2A37F",
"r. c #395C8F",
"t. c #4A6487",
"y. c #597BA6",
"u. c #6EA4CF",
"i. c #858283",
"p. c #898585",
"a. c #8D8B8C",
"s. c #938989",
"d. c #8B948D",
"f. c #939293",
"g. c #999697",
"h. c #999B99",
"j. c #9F9DA0",
"k. c #A6A4A5",
"l. c #ADABAC",
"z. c #B8AFAD",
"x. c #A0B1A7",
"c. c #B2AFB0",
"v. c #B6B4B5",
"b. c #CCAD8C",
"n. c #D2BEA8",
"m. c #EDC99F",
"M. c #FBDBAD",
"N. c #BFC0C2",
"B. c #D2D1D1",
"V. c #FFEEC3",
"C. c #FFFDD9",
"Z. c #E6E5E6",
"A. c #F8F8F9",
/* pixels */
"n A S S A N O % % % O S { { { { { } | * % % $ % % % = 1 1 1 ",
"l v b v v l & & * * * b P P P P P I I , ; ; ; * , 8 9 s k 9 ",
"; , , 1 , A k k 0 Z c H ! N H 3 2 2 3 2 1 3 3 m p.A A A N S ",
"1 8 8 8 ; k 1 ; , k v k h.r ..p r *.a.g.B k 1 s m I D m m m ",
"g g g 9 $ 8 0 k 0 N n & u +.O.$.$.o.e T E z 8 ; A } P g g g ",
"S J P J x W l m M V w o.o.o.....o.o.o.e Q L N 9 R P D m S I ",
"U [ [ } A i.A N L < O.#.@.#.@.@.#.#.#.O.e k Q s i.A A A Y } ",
"v m G G 9 s.R R d.q 5.;.>.;.>.<.0.1.;.5...M f.S | c l v m N ",
"9 9 Z N < c.i.M + a ;.:.3.>.;.2.<.;.:.2.3.e K v.g.g c g g 9 ",
"b Z Y [ Y s.6.9.5 =.>.0.q.3.>.<.<.;.( :.1.( ) e.` ' P m Z Z ",
"m Z { { { ! 8.V.n.;.2.w.<.3.,.<.=.e.9.( :.>.e.n.) [ Y Z A A ",
"> 8 1 1 1 g._ f.u.;.2.0.<.>.<.;.e.m.M.b.3.7.u.C V * & & & & ",
"> 8 1 1 0 ! V B h ( q.( w.w.w.( M.C.V.9.;.0.t.2 k % % % & = ",
"9 g g x } W z z =.;.5 6 3.q.( 9.m.e.f 5 :.-.M j L < < 1 9 s ",
"c m x v W p.R W =.w.) x.E ( 9.M.` M z.7.;.^ 3 3 z x x x v m ",
"R { A Z A T F f.Q f ! Z.r.z.m.V.z.y.Z.e.5 M &.H H { { { { { ",
"S P m v v G k E l.V ) n.x.A.V.V.A.B.n.`   b h.H E Y I P F P ",
"> , , , , g , 3 n F 7 ` n.M.M.M.M.m.9.5 o x L n k Z v 1 , 1 ",
"< 3 8 g 9 1 1 0 V N - f ` _ b.e.7.#.7 o @ @ l ; 2 k 9 9 8 8 ",
"g g g g g a.g B V V ; u.Z.& e y y X.s . j T k = < & 1 k k k ",
"G P P P I N k L k., 4 l f t O.$.y X.a 6 T h.S 3 N F F P P P ",
"U [ [ [ } c > g &.X d 6 . / >.,./ 5 #.O.i L l.S U { { { } { ",
"v N N N N Q 0 g l.s b.z.# y ......O.%.O.i U h.b U F F D D D ",
"g g g g g 2 ; ; z n 0 % + X.+.$.$.%.+.e h.v.W S W Z A A A A ",
"v m Z m N i.0 j B S H J 0 q r r r i a . N.k.i.Q E ] S 0 0 1 ",
"n S G S N l.G z N Q L K H M H Q % o 5 6 : B B N S [ D , 1 , ",
"3 0  . . .G z z k v 1 1 k M J h.; @ ~ ~ o f k 2 S = & $ $ & ",
"3 , }  . .f.U M V l l v k b N U W I o o y.B.L U s.; , , = * ",
"z v g v N m g g g k g 2 > , , , , 1 1 1 0 { } } { ] } } D g ",
"z z z z m v 0 g 0 0 g < ; > , > ; ; > ; 1 U Y Y Y Y Y Y m g "
};
