/* XPM */
static char *_83f7e7c02ad4fbcecbda9fbba8a708cyUncFVkdGN5n6zk8[] = {
/* columns rows colors chars-per-pixel */
"30 30 156 2 ",
"   c #010100",
".  c #0E0B0B",
"X  c #011B03",
"o  c #171313",
"O  c #1C1818",
"+  c #210D07",
"@  c #3D1E0F",
"#  c #261F1E",
"$  c #391F14",
"%  c #042F06",
"&  c #192916",
"*  c #1E381C",
"=  c #27221F",
"-  c #1C1C21",
";  c #241F23",
":  c #262121",
">  c #2A2324",
",  c #2B2629",
"<  c #2D292B",
"1  c #332D2D",
"2  c #2E3328",
"3  c #2F2C30",
"4  c #342D32",
"5  c #3B2F31",
"6  c #363232",
"7  c #3B3333",
"8  c #3D3539",
"9  c #3E3B3C",
"0  c #6A371A",
"q  c #503221",
"w  c #413637",
"e  c #423739",
"r  c #433B3C",
"t  c #493E3E",
"y  c #0A420C",
"u  c #075613",
"i  c #1B5E15",
"p  c #1F5319",
"a  c #086C1F",
"s  c #2A741F",
"d  c #36422F",
"f  c #285520",
"g  c #0E7A29",
"h  c #2E6A2B",
"j  c #575719",
"k  c #5F4A38",
"l  c #6F4724",
"z  c #754D30",
"x  c #7C5F31",
"c  c #463F43",
"v  c #4A3F41",
"b  c #444242",
"n  c #4C4243",
"m  c #4B4649",
"M  c #4C4A4A",
"N  c #514545",
"B  c #514648",
"V  c #534B4C",
"C  c #594D4E",
"Z  c #5C504E",
"A  c #5A4E51",
"S  c #555253",
"D  c #5D5253",
"F  c #585856",
"G  c #5C5B5B",
"H  c #625556",
"J  c #625658",
"K  c #645A5C",
"L  c #6A5D5E",
"P  c #69634C",
"I  c #6A605F",
"U  c #6A5E60",
"Y  c #646363",
"T  c #6B6363",
"R  c #686966",
"E  c #6C6B6C",
"W  c #726566",
"Q  c #736867",
"!  c #736669",
"~  c #746C6C",
"^  c #7B6D6D",
"/  c #7D6F71",
"(  c #757474",
")  c #7B7474",
"_  c #787778",
"`  c #7C7B7B",
"'  c #80411D",
"]  c #905B26",
"[  c #9E6F3D",
"{  c #8C6548",
"}  c #A0795B",
"|  c #85786A",
" . c #837475",
".. c #867678",
"X. c #837C7D",
"o. c #887879",
"O. c #2B811E",
"+. c #0E852B",
"@. c #2F8623",
"#. c #369A24",
"$. c #2FA52B",
"%. c #6EBB1B",
"&. c #4F8A27",
"*. c #549327",
"=. c #579928",
"-. c #41A528",
";. c #45B02B",
":. c #378642",
">. c #589A67",
",. c #ACA80D",
"<. c #C3B417",
"1. c #CAAF26",
"2. c #9DD416",
"3. c #D8C814",
"4. c #DFD111",
"5. c #E1F006",
"6. c #FEFE02",
"7. c #F3D234",
"8. c #FDED22",
"9. c #AF8142",
"0. c #BB8F43",
"q. c #84A442",
"w. c #8A8263",
"e. c #99906D",
"r. c #8C8677",
"t. c #B78E64",
"y. c #A48F71",
"u. c #C29445",
"i. c #DAA559",
"p. c #F1BA59",
"a. c #C2A37F",
"s. c #FEF472",
"d. c #597BA6",
"f. c #078AC1",
"g. c #6EA4CF",
"h. c #848384",
"j. c #8C8B8B",
"k. c #908F90",
"l. c #939393",
"z. c #9A9291",
"x. c #9B9B9B",
"c. c #A3A3A3",
"v. c #AAA9AA",
"b. c #A0B1A7",
"n. c #BABABA",
"m. c #DCB78D",
"M. c #D2BEA8",
"N. c #EDC99F",
"B. c #FBDBAD",
"V. c #E0D1BF",
"C. c #C4C4C5",
"Z. c #CECECE",
"A. c #D8D7D7",
"S. c #FFEEC3",
"D. c #FFFDD9",
"F. c #EEEEEE",
/* pixels */
"8 Q o.L K 1 > 4 7 7 w c J o.U 8 B J r : r n < = H G > < J A ",
"t K W H D 8 7 8 w r v A J ! J c m S 7 = V D 7 > Z Z c k V m ",
"K e = r v _ M G M b E F E Y S S G Y F ( _ ` x.j.( m ) / # ; ",
"V 7 > N A d 9 < r Y j.h s @.s p * f l x r.E ( m S K U U 4 4 ",
"5 7 5 A J ` 8 8 v.>.:.#.#.-.-.O.O.%.5.8.i.t.C.M Y  .7 7 n 9 ",
"N H K m v Y r l.d a -.-.;.;.O.a 9.p.i.[ u.6.0.m ( U L J w 8 ",
"H ^ ..e # R h.:.a g +.-.-.-.O.O.q.u.7.9.u.u.4.k k.N ..) 5 4 ",
"k m A m B X.v.d +.g g i u u O.2.1.u.8.a.] i.8.l o.7 T T e 8 ",
"7 > = C G l.S a g g +.a a u a 2.3.[ i.m.t.[ u.| ~ ; H D v c ",
"C L Q N r h.= +.+.a u g a a :.,.3.1.m.B.m.+ M.` c.C ^ ^ C B ",
"H | ..n 7 R & g u X y u i u j { 3.s.N.t.t.  Z.h.h.L  . .H A ",
"1 w n C A R o u y   y e.b.e.z [ 0.p.N.m.t.{ E G ) e K J 1 < ",
"# 5 5 A H ~ o u d h.M N.D.S.} 1.0.} N.M.m.N.b G S w H A ; ; ",
"t C H ^  .Y o a m n.R z m.A.d.,.,.} B.t.t.} G V G ^ e 7 c w ",
"N A H ^ ) S m % h.R P j ' g.f.,.,.} S.B.m.F A.M )  .5 7 v c ",
"H w ; r c b j.` x.S y.0.q %   ,.,.] z.} ( x.v.6 X.H ; > 5 4 ",
"C v r r t 6 h.S R S x.d % g y 0.] X y d M.G _ 3 c.D r e 7 4 ",
"# W o.n 5 V S M Y Y Z., a y $ q y g +.p S E _ 9 k.N  . .v r ",
"7 L ^ C M I G j.l.( E , a y y :.y y g &.<.: ` G ` B ! Q N c ",
"H B t ^ ..G G n.v.E b i j $ l.F.l.@ l j *.O R F ) H n m J A ",
"N D K ! ~ I d l.` v.9 a #.i M d.m y =.=.#.. S c l.m V V N c ",
"# ! ..L D S 8 h.j.( h.y s p O M - y $.-.m l.R E h.> H D ; ; ",
"n J U C M 6 6 h.` j.c.c.m & { V.( X y d C.Y S h.m H V V < , ",
"H M n 8 5 9 6 Y ( j.c k.j.d 2 w.S + $ q k.M R G e ..v r 5 4 ",
"H r 1 N C r 1 M h.` S h.n._ F o + q ' 0 M b E 8 b K A V e 8 ",
"H w # D J M 6 8 ( G M _ ` h.Y r 9 $ q q E M G 9 b n H H c c ",
"t U Q C N F 7 ( h.` G E G E h.C.G b F _ c.M l.~ r.D ^ Q 1 < ",
"7 ! o.C v G J J D > > 7 D ..W n V G n 7 A D 6 = S J  .) : ; ",
"A v e A D 7 1 e e r e > n L C 7 6 1 w t r w W ^ 8 4 V V 4 1 ",
"J e : D J 1 : 4 7 n r = 9 J V 7 < = 8 n 8 7 ) o.< > b n 6 4 "
};
