/* XPM */
static char *_71c11afec3e4a889b2a477bf54dd1afdrgZR8ndvuMqpNbf[] = {
/* columns rows colors chars-per-pixel */
"30 30 149 2 ",
"   c #010100",
".  c #011B03",
"X  c #210D07",
"o  c #3D1E0F",
"O  c #241C1B",
"+  c #341F18",
"@  c #042F06",
"#  c #173915",
"$  c #2F201C",
"%  c #262121",
"&  c #2B2424",
"*  c #292924",
"=  c #2C292B",
"-  c #332C2D",
";  c #313A2B",
":  c #312E32",
">  c #392F30",
",  c #363232",
"<  c #3A3233",
"1  c #3E3B3B",
"2  c #5B240B",
"3  c #4E281A",
"4  c #6A371A",
"5  c #503221",
"6  c #5A3C29",
"7  c #403637",
"8  c #413738",
"9  c #433B3C",
"0  c #493D3F",
"q  c #0A420C",
"w  c #075613",
"e  c #1B5F15",
"r  c #086C1F",
"t  c #35402E",
"y  c #0E7A29",
"u  c #306823",
"i  c #575719",
"p  c #49413F",
"a  c #684933",
"s  c #754D30",
"d  c #4A3F41",
"f  c #1D4766",
"g  c #444243",
"h  c #4B4243",
"j  c #4C4649",
"k  c #4C4A4B",
"l  c #514647",
"z  c #514748",
"x  c #544B4C",
"c  c #594D4F",
"v  c #51514F",
"b  c #544E51",
"n  c #5A4E51",
"m  c #555353",
"M  c #5D5354",
"N  c #585856",
"B  c #5C5B5B",
"V  c #7B5A42",
"C  c #615656",
"Z  c #635759",
"A  c #635A5B",
"S  c #6B5E5E",
"D  c #5D655F",
"F  c #6B605F",
"G  c #706950",
"H  c #615F60",
"J  c #6B5E60",
"K  c #636363",
"L  c #6D6364",
"P  c #686966",
"I  c #6C6B6B",
"U  c #726565",
"Y  c #736768",
"T  c #756A6C",
"R  c #7A6B6D",
"E  c #6B756E",
"W  c #747373",
"Q  c #7C7273",
"!  c #7C7B7B",
"~  c #905B26",
"^  c #845D35",
"/  c #876436",
"(  c #9C6E3C",
")  c #A37A3D",
"_  c #8C6548",
"`  c #80785C",
"'  c #997754",
"]  c #A0795B",
"[  c #806E6E",
"{  c #857575",
"}  c #877777",
"|  c #887776",
" . c #857678",
".. c #84797A",
"X. c #8A7B7C",
"o. c #2B811E",
"O. c #0E852B",
"+. c #19912D",
"@. c #319723",
"#. c #2FA52B",
"$. c #6EBB1B",
"%. c #579928",
"&. c #77943D",
"*. c #41A528",
"=. c #47B42C",
"-. c #378642",
";. c #978B1C",
":. c #A68418",
">. c #ACA80D",
",. c #CAAF26",
"<. c #DBBD31",
"1. c #9DD416",
"2. c #D0C115",
"3. c #D8C814",
"4. c #E8D90F",
"5. c #AF8142",
"6. c #99906D",
"7. c #9B8C7C",
"8. c #A3886B",
"9. c #B78E64",
"0. c #B79978",
"q. c #C2A37F",
"w. c #395C8F",
"e. c #817F81",
"r. c #6494BB",
"t. c #858585",
"y. c #888788",
"u. c #8D8C8D",
"i. c #908F8F",
"p. c #908E90",
"a. c #939292",
"s. c #999594",
"d. c #999799",
"f. c #9D9C9C",
"g. c #9F9DA0",
"h. c #A5A4A4",
"j. c #A8A7A7",
"k. c #ACACAC",
"l. c #B8AFAD",
"z. c #A0B1A7",
"x. c #B2B2B2",
"c. c #BCBCBC",
"v. c #DCB78D",
"b. c #D2BEA8",
"n. c #E9C69C",
"m. c #FBDBAD",
"M. c #C4C4C4",
"N. c #D5D5D5",
"B. c #FFEEC3",
/* pixels */
"b Z Z A A m $ % % $ % A  .| | | | | | & % % % % % % = < < < ",
"j x c c x l & & & * & x U U Y Y U U T > - - - * - 8 9 p 0 h ",
"- < < > > F - - 1 1 P d.Q W 9.6.` | p.g 9 , v ! 0 Z C Z C Z ",
"< 8 7 7 = 1 = B v = v g a 3.4.4.2.' 8.L v 9 1 W S T S n n n ",
"d d d 0 O x = B N i.E u &.1.1.1.1.,.<.7.t.1 = ! | } U h h d ",
"A L U L j I & m a.P u e e e e e e %.$.%.d.= 1 I U U A c Z Y ",
"T } }  .Z a.1 u.B t e o.o.o.u o.u o.r o._ I , 9 Z A C Z R  .",
"b n J A 0 h.x.h.; @ o.*.=.*.*.*.=.@.w -.' u.H N z z z c c M ",
"0 0 M M < f.7.N.g w o.@.*.*.*.*.*.u w e a g.7.u.h h l 0 d 0 ",
"x C [ } R a.q.n.u y r o.*.*.*.*.@.r y w ; 0.0.b.[ [ U n C C ",
"c C } } | V v.m.u w w r @.*.*.*.*.r w r i n.8.] }  .R C Z Z ",
": < < < < W G V w.f . w @.*.*.*.@.r   r w._ u.M.c & & & & & ",
": < < < 9 I P g z.K   w y +.#.+.O.e   K r.p b.r.j % & % & & ",
"0 d d l } K K 9 3.>.i @ r y y y r @ i :.;.< S p < > > > 9 p ",
"l n l x Q v W B D ( 3.i . r O.r @ :.3./ p N k ! l j l l x n ",
"R } Z Z C W < m g.K o @ . q O.w @ q X N s.u.a.u.| { } } | | ",
"H L b x x j.d u.p.P u r @ . q @ . @ D x.k.d.! t.R T T F U U ",
": > > > > e.t.T : e s u r .   @ q w # 1 p.! B t.C C z > 7 < ",
"< 1 7 d 8 ! k v : a.6.u O.y y y u g.l.g M.t.y.j.0 h 0 9 7 8 ",
"d d d d d t.u.h.g.N u i s s 4 4 5 f w.g g ! N.k.& & < h p h ",
"A U Y Y Y H k H h.k @.= X u %.%.o.. j b.3 v B K S F F F Y Y ",
"R  . . . .k g ! M.D e 5 ( 5 o.=.*.w m B.2 ; v W | | | | | X.",
"x M M M M k.c.c.j.g.g 4 5.s = e q K t._ o t.m f.C L S S S S ",
"d d d d d B B B W u.k / / 6 O B W I W N B P k i.l Z Z Z Z Z ",
"b n C n n d 1 N t.B 4 ( ) 3 g W k g 9 d k k m P R } A 7 8 < ",
"b Z J A Z s.k.j.g.N 2 ~ ^ + W i.P v v g 1 g m I  . .S > > > ",
"7 8 e.e.X.W j m ..D * O + : H K N , = & = g u.f.0 = & % % % ",
"8 7 | X.e.g.W H E y.m k k t.h.d.y.I H B M B B y.0 - > > = & ",
"z x d x Z n d d d h d < > > > > > > > < 9 } }  .} } } { S d ",
"k z j k M z 1 d 9 d d , : : - : : : : : < T R R R R R R b d "
};
