/* XPM */
static char *f8621712f3a44952facf445c15f17970jjmkCQHuy3TuZBpi[] = {
/* columns rows colors chars-per-pixel */
"30 30 8 1 ",
"  c #7C142B",
". c #771930",
"X c #800E24",
"o c #B60522",
"O c #B50825",
"+ c #AF1732",
"@ c #B01532",
"# c #FF0012",
/* pixels */
"Xoooooooooooooooooooooooooooo ",
"O############################+",
"O############################+",
"O############################+",
"O############################+",
"O############################+",
"O############################+",
"O############################+",
"O############################+",
"O############################+",
"O############################+",
"O############################+",
"O############################+",
"O############################+",
"O############################+",
"O############################+",
"O############################+",
"O############################+",
"O############################+",
"O############################+",
"O############################+",
"O############################+",
"O############################+",
"O############################+",
"O############################+",
"O############################+",
"O############################+",
"O############################+",
"O############################+",
" @@@@@@@@@@@@@@@@@@@@@@@@@@@@."
};
