/* XPM */
static char *ae17ea835a9245b3db2c98c09bf4925c0910kT2JPAxWbo3N[] = {
/* columns rows colors chars-per-pixel */
"30 30 108 2 ",
"   c #E53603",
".  c #EC3704",
"X  c #E53904",
"o  c #ED3A04",
"O  c #EC3709",
"+  c #E53E0B",
"@  c #ED3E09",
"#  c #F23705",
"$  c #F33B04",
"%  c #FA3C04",
"&  c #F23708",
"*  c #F33B09",
"=  c #FA3C09",
"-  c #E64304",
";  c #EC4205",
":  c #E64C07",
">  c #EC4B06",
",  c #E64209",
"<  c #EC440B",
"1  c #E6480A",
"2  c #EA4C08",
"3  c #F24404",
"4  c #FA4505",
"5  c #F54C05",
"6  c #FA4D06",
"7  c #F3450A",
"8  c #FB440A",
"9  c #F44C09",
"0  c #FA4C09",
"q  c #E55004",
"w  c #EF5407",
"e  c #EC5B04",
"r  c #EF520D",
"t  c #E75808",
"y  c #EE5C0A",
"u  c #F45306",
"i  c #F95305",
"p  c #F45B05",
"a  c #FB5C06",
"s  c #F4530A",
"d  c #F95409",
"f  c #F45B0A",
"g  c #F95A09",
"h  c #EE660A",
"j  c #EE690A",
"k  c #F46406",
"l  c #F96306",
"z  c #F46B06",
"x  c #FA6B06",
"c  c #F4630B",
"v  c #F9630A",
"b  c #F46D0A",
"n  c #FA6A09",
"m  c #F47404",
"M  c #FA7406",
"N  c #F57B06",
"B  c #FA7C05",
"V  c #F4740A",
"C  c #FA740A",
"Z  c #F6790B",
"A  c #FA7808",
"S  c #FA7F09",
"D  c #FD7D0C",
"F  c #FD7F0F",
"G  c #F68605",
"H  c #FB8005",
"J  c #FC8006",
"K  c #FC8306",
"L  c #FB8405",
"P  c #FD8404",
"I  c #F78B04",
"U  c #FA8802",
"Y  c #FD8802",
"T  c #FC8F03",
"R  c #FB8B07",
"E  c #FB8D04",
"W  c #FB8F05",
"Q  c #F88C07",
"!  c #F68009",
"~  c #F78409",
"^  c #FB8008",
"/  c #FB840A",
"(  c #FB800E",
")  c #F7890D",
"_  c #FB8A0A",
"`  c #FC8809",
"'  c #FD880B",
"]  c #FC8B0B",
"[  c #F79505",
"{  c #FA9502",
"}  c #FA9503",
"|  c #F99104",
" . c #FB9204",
".. c #FB9006",
"X. c #FE9205",
"o. c #FB9406",
"O. c #FC9704",
"+. c #FD9705",
"@. c #FB9903",
"#. c #FC9903",
"$. c #FD9A02",
"%. c #F89A04",
"&. c #FC9904",
"*. c #FC9A04",
"=. c #FD9408",
"-. c #FC940A",
";. c #FC990A",
":. c #FA8210",
/* pixels */
"y Q #.P u $ $ M J 6 B #.#.J 6 c ; Z &.+.n # $ p R x g { @. .",
"u d T J 5 o $ 4 s O a Q P 9 k T j 8 ^ ..k . o % d . 7 A  .v ",
"P 2 5 4 $ $ = X $ = . 2 4   m &.+.z 3 0 . % % . X $ $ - s o ",
"` 6 o 6 $ $ o a A ; 5 ( 6 % B +...n . 5 3 . . 4 :.s $ C l 8 ",
"u $ j J s . l Q } l ^ @.^ 0 N +.n $ s ` l $ 5 D +.B a { R v ",
". c ..{ z o J &.! 9 N &.+.n u Q * 2 ! #.U X k  ...h p  .$.Y ",
"$ S #.{ k   ~ @.b * i ` S 7 X u # l ..;.L   h &./ 7 4 M -.a ",
"o 4 R ..c = > M 3 . 3 ; ; % . 5 3 7 M ..( $ * b d o * 7 - $ ",
"a o 5 l $ 2 8 % % 0 ^ g % & 2 J D * * x 7 @ 5 $ % $ x C 8 $ ",
"M 7 . $ s J x o $ z @.] a X m +.R s * . < M D 5 $ 9  .#.M $ ",
" .w %   z } P =   6 U @.M O m } } V $ o ; Q { l X $ M ....3 ",
"x @ = . b } / % % # C @.M # M &./ 3 $ = ; I } v % $ f #...5 ",
"g . J B 7 C 5   , 3 - V X $ z  .C o b _ d d x $ X 1 $ c e X ",
"% # N @.V 7 % 8 V M 3 $ 3 k < b = $ y R ` > % = e ( u $ o g ",
"$ v , B B 2 $ C {  .u , B -.B < O 9 r c ` c X g R { M o k R ",
"v  .b 9 5 o 3  .} b @ 5 Y ;.+.5 s ^ I 0 u $ . x &./ : $ M #.",
"M  .{ M $   3 ` ..k C ` ;.-.l , d Q ;.` 0   $ M  .B g Y ;.#.",
"< V &.Q c $ # i x $ M +. .k 0 ( q s Q +.Z 8 7 m ^ 3 i Q +.^ ",
"C 7 M l . . $ # $ o O b c . Z -.' d f n 7 * v A 7     f b 3 ",
"R 5 $ $ $ % $ 5 f $ $ c % . B { @.V $ c x $ d 5 c h X g C , ",
"x 8 : n % X 3 S Q g M  .z = B @.J 0 v +.! $ $ n } J d _ } N ",
"# ; ` ..c $ ^ +.Q k B ;.&.c b } Z f { $.&.C x  .&.N a } ;.P ",
"o B @. .b X J #.b . b @._ g O x o k ..&.+.A l +.` o e } @.^ ",
"# v  . .b . j ` g $ = k p * O % h 5 J #._ k x ..R @ u x Q / ",
"u # x B 5 # $ g % $ n 3 % $   z B $ b Q v % 0 D x 7 M a s g ",
"l % o 4 @ b 6 . $ c ..C $   b ..-.b 3 5 5 A x 4 = >  .Q p ; ",
"R > 3 . n +.` $ o v ..#.M o m +.+.m 7 @ Z &.+.a . 3 R @.Q i ",
"B ; % o l &.` $ o $ B ;.B . m +.;.m V j ; T +.M 3 $ g  .R 5 ",
"l . x l i P x $ $ o p ] p . m &.Q u m P > M } V ; v 3 N  .9 ",
"4 o R ..f 5 4 ; t p # i O $ > ! S * b ..C @ M v V ^ % 0 u $ "
};
