/* XPM */
static char *f976fa421d2947e1a61c8c03323a354eDvDvO0OlBZAjsUDI[] = {
/* columns rows colors chars-per-pixel */
"30 30 87 1 ",
"  c #0C1326",
". c #13192D",
"X c #373A45",
"o c #3C414A",
"O c #40434C",
"+ c #4F525A",
"@ c #52555E",
"# c #535660",
"$ c #555962",
"% c #5B5D66",
"& c #5D5E68",
"* c #5D6167",
"= c #5E616A",
"- c #62636D",
"; c #646671",
": c #666A73",
"> c #6A6E77",
", c #6D6F79",
"< c #6D717A",
"1 c #71747D",
"2 c #727680",
"3 c #757982",
"4 c #7A7D87",
"5 c #7B7F88",
"6 c #7D838C",
"7 c #83858E",
"8 c #858B95",
"9 c #8B8D96",
"0 c #888F99",
"q c #87919A",
"w c #8D939D",
"e c #90949C",
"r c #8F96A0",
"t c #8E98A1",
"y c #9097A1",
"u c #9399A3",
"i c #9A9DA6",
"p c #9CA2AC",
"a c #A1A4AD",
"s c #A5AAB2",
"d c #A8ACB4",
"f c #A7AEB8",
"g c #ADB2BA",
"h c #B3B6BF",
"j c #AFB6C0",
"k c #B4BBC4",
"l c #B8BCC4",
"z c #BABFC8",
"x c #BFC4CC",
"c c #C1C6CE",
"v c #C3C7D1",
"b c #C3C8D0",
"n c #C3C8D1",
"m c #C3CAD4",
"M c #C4CBD4",
"N c #C6CDD7",
"B c #C8CDD5",
"V c #C9CDD6",
"C c #C7CED8",
"Z c #C9D0DA",
"A c #CED5DE",
"S c #D3D7E0",
"D c #D2D7E1",
"F c #D3DAE2",
"G c #D5DCE3",
"H c #D4DAE5",
"J c #D7DBE4",
"K c #D6DEE5",
"L c #D5DCE6",
"P c #D9DDE6",
"I c #D7DEE8",
"U c #D8DFE9",
"Y c #D9E1E9",
"T c #DDE1EA",
"R c #DCE3ED",
"E c #DDE4ED",
"W c #DFE5ED",
"Q c #DFE6ED",
"! c #DFE5F0",
"~ c #DFE6F0",
"^ c #DFE6F1",
"/ c #E0E4ED",
"( c #E1E5EE",
") c #E0E6EF",
"_ c #E1E7EF",
"` c #E2E6EF",
"' c #E0E7F1",
/* pixels */
"H^^^^Q^''9=P^^RR'Ra%B`^^^''k%o",
"LRNNNNCMc6=LQCmCnce&B`ZCCMva%o",
"LUyyyyt6<-=LIuyy8,-%B`iry0<:%o",
"LYyyytt6<=-FIyyy81:%B`iry0<:%o",
"LYttyte6<--YYyry8<-%B`pey01:%o",
"89,<<<,:--=98<<<:--%79<><,--%o",
"%&**%%%*--=%=%%%%=&*==&-%%%&*o",
"BPPPSg%hPPJJHGx*pJHJJHJHHc%iJw",
"SLHHHg%l`PUPUHc&a`TIYPUULx*aQu",
"yuww43%l^gyyw<>%aQkryryw<>%pQi",
"iuyw61&l^frrt<>=a`kyyyyw<>%pQi",
"upiy71&lQfryt<>%a`keyyyw<>%aQu",
"2542;-%eg9453;;%7hw54454:-%7g1",
"$&%%%%%&&&%%%%&%%%%%%%%%%%%%%o",
"zvvvvvccv5*xvvvvccw%hcccnnna%o",
"L^^^R`RQT8-LQQ^^Q`a%nQ`'Q``l%o",
"HIpppppr7>=HYpppu0<%B`sppi83%o",
"HIrrurt6<=-JYytt8<;%B`iyr0<:%o",
"HPrrrrr6<=-HLeww8<-%B`pwtq1:%o",
"cc808885<==cc0084>-=hNt887>-%o",
"$%%%%&%&*%=%%===%%&&%%&&&&%%=o",
"assi=7ssssssa=1ssssssssp&1dss<",
"FQ`B%sQ^R'QRH*9`RRRR^R'G-9R^Qi",
"gkdw%sRNkkksp=9'Ajkjllsa%9`Aj4",
"wr<>%s^kurt2,%9Qmrrtyy1<&9'nu;",
"0w<>%sQkrrt2<%8^mryyty1<%9`Nw;",
"0w,>&aYjrrr<,&0Qxwrrtw1<&9Yce-",
"%==%==-====%=&====*=**==---=&o",
"++#@@#@#@@++##+###@@@@@@@$$@#X",
"                          .   "
};
