/* XPM */
static char *b0359780c16a43abc56c41ccbd73a28eWIcYeJNr7Q3S2AwW[] = {
/* columns rows colors chars-per-pixel */
"30 30 110 2 ",
"   c black",
".  c #3C3702",
"X  c #585104",
"o  c #635C04",
"O  c #665E05",
"+  c #706706",
"@  c #7A7107",
"#  c gray36",
"$  c gray46",
"%  c #8F850A",
"&  c #C9BB12",
"*  c #C8BD18",
"=  c #C7BD21",
"-  c #C6BB26",
";  c #C5BA2A",
":  c #C8BB2A",
">  c #C8BC37",
",  c #D3C414",
"<  c #DCCD15",
"1  c #D5C91D",
"2  c #DACE1C",
"3  c #E0D016",
"4  c #E1D116",
"5  c #E4D416",
"6  c #E6D517",
"7  c #EADC1D",
"8  c #F7E519",
"9  c #F0E11E",
"0  c #F5E51D",
"q  c #F4E51E",
"w  c #FAEB1A",
"e  c #FCEA19",
"r  c #FCEB1A",
"t  c #FAE81D",
"y  c #FCEA1C",
"u  c #CEC221",
"i  c #CEC225",
"p  c #DBCD21",
"a  c #D4C82C",
"s  c #D0C332",
"d  c #E0D223",
"f  c #E3D623",
"g  c #E8DA22",
"h  c #EBDD21",
"j  c #EDDD22",
"k  c #EEDD24",
"l  c #EFE02A",
"z  c #F0E021",
"x  c #F2E220",
"c  c #F6E620",
"v  c #FBEA20",
"b  c #F6E62B",
"n  c #BEB456",
"m  c #BCB465",
"M  c #B8B168",
"N  c #B7B071",
"B  c #C6BC47",
"V  c #C6BE4B",
"C  c #C9BD49",
"Z  c #C4B950",
"A  c #C0B75C",
"S  c #C5BA62",
"D  c #C5BC6D",
"F  c #B6B083",
"G  c #B6B187",
"H  c #B8B283",
"J  c #B7B38A",
"K  c #B7B38C",
"L  c #B9B69D",
"P  c #BCB99B",
"I  c #BFBCA1",
"U  c #BDBBA6",
"Y  c #C0BA81",
"T  c #C1BC8C",
"R  c #C5BE92",
"E  c #C2BE9A",
"W  c #C1BFB0",
"Q  c #C2C2AE",
"!  c #C9C7AE",
"~  c #C3C2B5",
"^  c #C8C5B1",
"/  c #C5C3B8",
"(  c #C7C4BE",
")  c #C7C6C1",
"_  c #C8C7C1",
"`  c #CDCBC5",
"'  c #CECEC6",
"]  c #CDCCCB",
"[  c #CFCFCA",
"{  c #CFCFCE",
"}  c #D3D2D2",
"|  c #D5D5D4",
" . c #E1E0DF",
".. c #E2E2E0",
"X. c #E5E4E4",
"o. c #EAEAE7",
"O. c #EAEAE8",
"+. c #ECECE8",
"@. c #EFEFEE",
"#. c #F1F0EF",
"$. c #F2F1F1",
"%. c #F5F4F3",
"&. c gray96",
"*. c #F8F8F6",
"=. c #F9F9F8",
"-. c #F9F9F9",
";. c #FAF9F9",
":. c #FCFCFA",
">. c #FDFDFD",
",. c white",
/* pixels */
",.,.,.,.,.,.,.,.,.,.,.;.X.} # $ X.;.,.,.,.,.,.,.,.,.,.,.,.>.",
",.,.,.,.,.,.,.,.%.) D = p k     1 ; T ] ;.,.,.,.,.,.,.,.,.>.",
",.,.,.,.,.,.;./ B 0 r r r r O   6 e t x n ` ,.,.,.,.,.,.,.>.",
",.,.,.,.,.+.N x r r r r r r X   6 r r e r g G $.,.,.,.,.,.>.",
",.,.,.,...V r r r r 8 r r 8 .   6 e t e r r c m @.,.,.,.,.,.",
",.,.,.O.C r r r r r r r r 4   O e e r r r r t e m $.,.,.,.:.",
",.,.=.M w w r r t r r r r 4   @ r r e r r e e e t J ,.,.,.>.",
",.,.W q r r r r e r r r r 4   @ t e e r t e r r r 7 ` ,.,.>.",
",.#.> r e e t e e e t r r 4   @ e e e r e e e t r r n ;.,.,.",
",.W r r e r r e r t e e e 6   o r r t r t e e e r r 7 [ ,.,.",
",.A t r t r r e r e t e r 4   @ e t r t r e e r r r y T ,.,.",
"o.2 e e e r r t e e r r r <   @ e e r e r e t r e r w : &.,.",
"[ q r r t r r e r r e e r ,   @ e t r e r t e r r e e f ..,.",
"( e r r e e e e e t e r r &   % e e r e r e e r r r e b ] ,.",
"! r r e r e e e e e t r r 5 + , r r e r e e e t t e e e ] ,.",
"^ r 8 e r t e r r t e r r r r r t e e r t e e e r e e v ] ,.",
"_ r r t r r e 8 r e e r r e e e t r r e e r r e r e e k | ,.",
"| k r r r r r r r t e t e e e r e r r t e t e e r t e p O.,.",
"%.u r r r r r r e e t e t e e r e r r e t e t r r e v Z ,.,.",
",.Y y r e r t r e r r e r r e t e t e e r e e r r r t E ,.,.",
",.' z r e r e e e e t e t e r r e r e e r e t r r r d  .,.,.",
",.;.m r e e t e e r r r r e e t e r t e e e e r r w H >.,.,.",
",.,.} f r e r r t r r r r e e e e t r r e r e e y a X.,.,.,.",
",.,.,.L 0 r e e e e e t e e e r r r t e e r t e j / ,.,.,.,.",
",.,.,.;.F q r r r r r r r e e r e t r r y y r x I >.,.,.,.,.",
",.,.,.,.=.K z r r r e r r t e t e e e e y y g U ;.>.,.,.,.,.",
",.,.,.,.,.=.~ s r r e t e e t r r r e e w > ] >.,.,.,.,.,.,.",
",.,.,.,.,.,.,.o.P i 0 r e r r r r r z > U #.,.,.,.,.,.,.,.,.",
",.,.,.,.,.,.,.,.,.$.) R S = * - D E ] %.,.,.,.,.,.,.,.,.,.,.",
",.,.,.,.,.,.,.,.,.,.,.,.>.,.>.,.,.,.,.,.,.,.,.,.,.,.,.,.,.,."
};
